PathFileType	4	(X/Y/Z)	D:\TRACE\spot_10-12-23\spot_arm_body_motion_3_4-v60.trc
DataRate	CameraRate	NumFrames	NumMarkers	Units	OrigDataRate	OrigDataStartFrame	OrigNumFrames
100.00	100.00	      21	9	mm	100.00	3501	      7000
Frame#	Time	front left toe			Front right toe			aft left toe			aft right toe			Arm			FL body			FR body			AL Body			AR Body			
		X1	Y1	Z1	X2	Y2	Z2	X3	Y3	Z3	X4	Y4	Z4	X5	Y5	Z5	X6	Y6	Z6	X7	Y7	Z7	X8	Y8	Z8	X9	Y9	Z9	

3501	35.000	-209.72939	-0.95744	-442.00519	219.46266	-0.10818	-351.20544	-215.77815	24.27017	224.30667	175.94324	20.11668	132.55806	48.30170	786.65063	-762.28821	-110.81316	585.70172	-455.82031	41.57983	591.64795	-456.91116	-107.22128	567.85400	428.02158	42.40564	567.89777	429.50671	
3502	35.010	-209.37703	-1.19083	-441.95807	220.02838	-0.24509	-351.25601	-215.37506	24.38078	224.14262	176.48856	20.32254	132.41553	48.46429	786.66461	-762.31201	-111.25033	585.89221	-456.45126	40.85323	591.63928	-457.82001	-107.86817	569.44922	427.32764	42.79443	568.76923	428.83521	
3503	35.020	-208.73396	-1.74151	-442.19009	220.59061	-0.37810	-351.31396	-214.70605	24.68312	224.00056	177.28949	20.57845	132.26154	48.84706	786.55646	-762.49481	-111.87977	586.13647	-457.29581	40.41460	592.20135	-458.65927	-107.64771	570.05365	426.92752	42.76910	569.47876	427.89316	
3504	35.030	-207.64616	-2.39018	-442.30539	221.14926	-0.50714	-351.37909	-214.08643	24.84691	223.88483	177.76921	20.55611	132.15367	49.59821	786.29584	-762.70410	-112.15649	586.12396	-457.86887	40.08458	592.32581	-459.53268	-107.25246	570.73962	425.93546	42.86408	570.25671	427.11786	
3505	35.040	-207.61688	-2.35007	-442.42044	221.70419	-0.63211	-351.45120	-213.37704	24.73822	223.65765	178.64769	20.63291	132.06616	50.44093	785.99414	-762.94574	-112.43266	586.37842	-458.81439	39.96893	592.20673	-460.68478	-107.30568	571.33276	425.14474	43.08595	570.74915	426.36722	
3506	35.050	-207.02994	-2.65815	-442.56671	222.25529	-0.75294	-351.53015	-212.80768	24.79372	223.57173	179.40021	20.72234	131.93977	51.23043	785.80090	-763.05304	-112.47637	586.26422	-459.69366	39.90532	592.47058	-461.50070	-107.22544	571.94867	424.78073	42.74669	571.50531	425.42126	
3507	35.060	-206.29295	-3.01615	-442.72293	222.80244	-0.86954	-351.61584	-211.95302	24.66345	223.52496	179.78433	20.72209	131.66017	52.03372	785.61340	-763.16541	-112.28387	586.35321	-460.26065	39.65152	592.45520	-462.07166	-107.05278	572.54767	423.70255	42.66740	572.08289	424.56113	
3508	35.070	-205.55360	-3.35173	-442.83508	223.34554	-0.98181	-351.70804	-211.42799	24.81435	223.47551	180.42496	20.80616	131.37132	52.59185	785.51056	-763.18414	-112.14714	586.83203	-461.04770	39.71399	592.18420	-462.62689	-107.02039	573.07794	422.86673	43.87141	572.32526	424.11362	
3509	35.080	-204.45383	-3.73352	-442.88321	223.88443	-1.08969	-351.80658	-210.90056	24.95648	223.37764	181.09850	21.03952	131.42661	53.37720	785.30951	-763.46851	-111.84423	587.12201	-462.05289	40.44072	592.82025	-463.57056	-106.85448	573.75293	422.07675	43.38345	573.06927	423.13394	
3510	35.090	-204.29094	-3.57805	-443.17966	224.41904	-1.19307	-351.91138	-210.41241	25.25217	223.14951	181.93011	21.12471	131.26552	54.13735	784.92725	-763.75677	-111.48878	587.41364	-462.79794	40.72525	592.92157	-464.21194	-106.75513	574.26843	421.44321	43.21009	573.66254	422.44846	
3511	35.100	-203.74063	-3.82539	-443.54556	224.94922	-1.29189	-352.02225	-209.59048	25.10592	222.91673	182.39699	21.15194	131.09950	54.48085	784.59839	-763.82758	-110.68024	587.30084	-463.66418	41.64017	592.93195	-464.90216	-106.87109	574.73468	420.54468	43.33138	573.96881	421.83151	
3512	35.110	-202.28029	-4.67304	-443.78445	225.47485	-1.38604	-352.13892	-208.95691	24.83973	222.74359	182.94312	21.26377	131.07968	54.92604	784.32990	-764.03027	-110.05113	587.36755	-464.21173	42.06005	592.98798	-465.63663	-106.63501	575.23236	419.68878	43.58338	574.34656	421.37515	
3513	35.120	-201.60963	-4.82002	-443.91943	225.99585	-1.47546	-352.26141	-208.40526	25.22150	222.50656	183.73047	21.34090	130.90485	55.23196	784.18524	-764.23340	-109.20287	587.80957	-465.13885	42.75536	593.09088	-466.46075	-106.43861	576.07593	419.22797	43.54671	574.88422	420.46030	
3514	35.130	-201.58049	-4.65749	-444.13318	226.51204	-1.56004	-352.38943	-207.79234	25.54428	222.30037	184.19133	21.69164	130.60252	55.15160	784.37683	-764.54572	-108.32329	587.60400	-465.89990	43.43381	592.80359	-467.35190	-106.44183	576.86029	418.12000	43.77688	575.83124	419.77838	
3515	35.140	-200.79478	-5.04194	-444.09949	227.02336	-1.63972	-352.52289	-207.10152	25.52995	222.09451	184.57246	21.78649	130.65468	54.48508	785.09393	-764.76050	-107.27919	586.99097	-466.70593	45.11275	591.65082	-467.64203	-106.13356	578.15515	417.49139	43.97832	576.55518	419.17325	
3516	35.150	-199.93289	-5.53411	-444.41644	227.52968	-1.71439	-352.66159	-205.98004	25.13547	222.22339	185.29398	22.07489	130.55713	53.38306	785.99115	-764.51361	-105.84225	586.04297	-467.49341	46.34082	590.30664	-468.39136	-105.56400	579.22491	416.93579	44.32756	577.23773	418.51071	
3517	35.160	-198.69533	-6.35532	-444.61258	228.03087	-1.78398	-352.80542	-206.13245	25.52925	221.78043	186.13448	22.07874	130.63148	51.17827	787.36029	-763.90771	-104.57624	585.18506	-468.11600	47.80639	589.30042	-468.89377	-106.58483	580.37793	416.25958	44.74955	577.48370	417.93295	
3518	35.170	-198.53389	-6.10934	-444.80820	228.52678	-1.84841	-352.95410	-205.52206	25.44928	221.78383	186.48955	21.75241	130.37740	48.79094	789.13031	-762.82385	-103.08537	584.56598	-468.80713	49.00608	588.72052	-469.73123	-104.70965	579.89246	415.37466	45.58274	577.38995	417.84253	
3519	35.180	-197.80663	-6.02001	-444.93335	229.01736	-1.90758	-353.10767	-205.03287	25.79006	221.58766	187.37006	21.78136	130.24966	46.26005	791.34265	-761.30762	-101.90289	584.51324	-469.30405	50.10123	588.39435	-469.89053	-103.85529	579.94946	415.05957	46.35275	577.46613	416.74417	
3520	35.190	-196.95975	-6.21119	-445.05179	229.50241	-1.96141	-353.26578	-204.10419	25.85096	221.54633	188.26277	21.94630	130.36472	44.07810	793.37946	-759.73224	-101.07523	584.57098	-469.65076	51.30304	588.16614	-470.06955	-102.52490	579.73639	414.72531	47.41617	577.31958	416.65073	
3521	35.200	-196.47688	-6.28037	-444.95096	229.98193	-2.00982	-353.42841	-203.42570	25.88827	221.40941	188.88896	21.60900	130.19223	42.34309	794.84106	-758.32349	-100.48234	584.47229	-469.79486	51.82630	588.32166	-470.35635	-101.19077	579.36157	414.43436	49.07924	576.98383	416.62140	
